<?xml version="1.0" encoding="UTF-8"?>
<svg id="Layer_1" xmlns="http://www.w3.org/2000/svg" version="1.1" viewBox="0 0 473 466">
  <!-- Generator: Adobe Illustrator 29.5.1, SVG Export Plug-In . SVG Version: 2.1.0 Build 141)  -->
  <defs>
    <style>
      .st0 {
        fill: #c8d7ff;
        stroke: #c8d7ff;
        stroke-miterlimit: 10;
        stroke-width: 40px;
      }
    </style>
  </defs>
  <path class="st0" d="M151.1,131.7c12.6-2.2,23.3-10.7,31.3-20.6,8-9.9,13.8-21.3,20.7-32.1,11.3-17.6,25.5-33.4,41.9-46.5,7.8-6.2,16.7-12.1,26.7-12.4,14.4-.4,18.5,5.1,24.4,18.1,5.9,13,10.1,35.4,12.9,49.8,4.7,24.6,11.9,53.7,14.6,64.3.3,1.1,9,15.9,11,17.4,12.2,8.8,20.7,10.4,27,12.4,25.4,8.2,26.9,9.9,52.8,20.5,4.2,1.7,24.2,12.2,26.6,16,4.2,6.4,13.4,14.6,11.7,22-3.9,16.6-20.7,34.1-35.5,41.2-19.9,9.6-46.5,17.6-59.2,32.3-9.5,11.1-6.7,27.3-8.2,41.8-1.5,14.5,1.7,36.8-1.9,53.6-5.3,24.8-11.4,34.6-26,36.4-17.9,2.2-51-36.4-63.3-49.4-21.9-23.1-29-45-61-46.2-16.8-.6-45.9,23.2-61.9,28.2-18.6,5.9-34.2,12.5-53.5,15.3-11.3,1.6-26.3-1.2-35.3-8.1-9.4-7.2-2-29.3,2.2-40.3,6.4-16.8,6.9-16.4,15.4-31.4,7.2-12.7,10.9-18.9,18.8-34.1,2.5-4.8,10.7-17.2,8.9-22.2-6-16.4-28.3-33.6-31.2-37.2-14.5-18.4-39.3-36.8-40.6-54-.3-4.6-1.1-12.5-.2-17,1.5-7.3,15.1-15.9,22.4-17.7,41.6-10,81,4.7,108.3,0h0Z"/>
</svg>
