<?xml version="1.0" encoding="UTF-8"?>
<svg id="Layer_1" data-name="Layer 1" xmlns="http://www.w3.org/2000/svg" viewBox="0 0 473 466">
  <defs>
    <style>
      .cls-1 {
        fill: #c4e0a3;
        stroke: #c4e0a3;
        stroke-miterlimit: 10;
        stroke-width: 40px;
      }
    </style>
  </defs>
  <path class="cls-1" d="M151.14,131.66c12.64-2.21,23.33-10.72,31.33-20.64,8-9.91,13.82-21.34,20.68-32.05,11.3-17.63,25.53-33.42,41.94-46.55,7.79-6.23,16.71-12.09,26.73-12.39,14.4-.44,18.5,5.14,24.38,18.14,5.89,13,10.11,35.39,12.88,49.78,4.74,24.63,11.94,53.67,14.63,64.29.28,1.1,8.95,15.89,11.02,17.38,12.25,8.82,20.67,10.38,26.97,12.42,25.39,8.19,26.94,9.95,52.77,20.53,4.19,1.71,24.18,12.22,26.65,15.97,4.2,6.35,13.38,14.64,11.66,22.03-3.86,16.57-20.71,34.06-35.52,41.21-19.88,9.59-46.5,17.65-59.16,32.34-9.54,11.07-6.72,27.32-8.17,41.8-1.45,14.47,1.71,36.79-1.85,53.57-5.27,24.8-11.38,34.6-25.98,36.43-17.88,2.25-51.04-36.36-63.33-49.38-21.86-23.15-28.98-45-61-46.25-16.75-.65-45.91,23.2-61.88,28.23-18.61,5.87-34.16,12.54-53.5,15.26-11.28,1.59-26.27-1.22-35.28-8.11-9.39-7.19-2-29.34,2.16-40.33,6.36-16.78,6.9-16.39,15.4-31.41,7.17-12.68,10.93-18.94,18.85-34.12,2.49-4.77,10.72-17.18,8.88-22.23-5.98-16.42-28.33-33.62-31.17-37.2-14.55-18.36-39.3-36.82-40.59-53.99-.34-4.55-1.14-12.51-.25-16.99,1.45-7.28,15.11-15.91,22.4-17.67,41.57-10.04,80.96,4.73,108.33-.05Z"/>
</svg>