<?xml version="1.0" encoding="utf-8"?>
<!-- Generator: Adobe Adobe Illustrator 24.2.0, SVG Export Plug-In . SVG Version: 6.00 Build 0)  -->
<svg version="1.1" id="Layer_1" xmlns="http://www.w3.org/2000/svg" xmlns:xlink="http://www.w3.org/1999/xlink" x="0px" y="0px"
	 width="500px" height="500px" viewBox="0 0 500 500" style="enable-background:new 0 0 500 500;" xml:space="preserve">
<style type="text/css">
	.st0{fill:#C3E1A2;stroke:#F8FAF5;stroke-width:2;stroke-miterlimit:10;}
	.st1{fill:#F8FAF5;stroke:#F8FAF5;stroke-width:2;stroke-miterlimit:10;}
</style>
<path class="st0" d="M255.81,292.37c5.41,31.04,7.06,62.73,4.91,94.18c-0.8,11.64-2.22,23.61-7.94,33.78
	c-14.63,25.99-49.68,30.11-79.46,31.18c-8.81,0.32-19.76-0.65-23.12-8.79c-1.53-3.7-0.99-8.13-3.09-11.54
	c-3.8-6.14-13.51-5.28-18.55-10.45c-10.26-10.53,8.18-32.48-6.59-40.94c-4.61-2.64-10.23-2.38-15.17-0.41
	c-20.04,7.97-42.66-3.11-53.84-20.65c-12.07-18.94-12.37-43.84-6.79-65.09c2.27-8.64,6.51-16.71,12.77-23.08
	c11.94-12.15,25.48-14.57,42.37-16.74c36.2-4.64,72.89-5.45,109.25-2.41c10.05,4.67-18.1,6.96-30.24,5.84
	c-39.16-3.64-80.25-8.79-111.95-32.04c-11.71-8.59-22.1-20.11-25.45-34.25s2.11-31,15.13-37.47c7.89-3.92,18.13-4.18,23.55-11.13
	c3.38-4.33,4.08-10.46,8.05-14.26c5.18-4.95,13.64-3.82,20.22-1.01c3.54,1.52,7,3.44,10.55,4.95c4.09,1.74,8.39-1.67,7.69-6.06
	c-2.9-18.25-0.53-37.56,9.48-52.96C149.16,55.2,173,59.03,192.54,50.53c20.67-8.99,37.46,13.12,43.34,26.05
	c20.7,57.47,16.08,94.71,12,155.7c-1.75,11.17-12.7-18.7-10.08-30.37c8.29-36.87,7.86-53.99,23.91-88.21
	c4-8.53,18.61-29.22,28.55-35.26c9.04-5.5,15.18-6.1,24.24-3.57c13.97,3.89,22.92-0.05,36.19,5.78c12.54,5.5,9.99,5.76,20.9,14.04
	c11.81,8.96,8.05,50.61,20.98,48.64c17.18,1.4,39.38,0.4,51.8,12.34c10.29,9.89,11.53,25.13,13.18,39.32
	c1.57,13.56-0.55,21.9-6.54,34.88c-1.71,3.7-9.52,12.08-12.48,14.88c-3.74,3.55-8.72,6.45-13.69,7.84
	c-42.14,11.79-85.89,15.67-129.29,10.26c-9.86-3.26,13.86-9.72,22.8-8.91c37.04,3.35,76.74,7.78,104.83,32.14
	c11.51,9.98,20.38,29.61,3.36,38.17c-3.45,1.73-6.28,4.73-6.98,8.53c-1.03,5.52,3.4,7.32,6.3,10.23c8.17,8.21,1.37,23.58-9.45,27.77
	c-10.81,4.19-25.76,4.47-36.85,1.12c-11.15-5.29-15.54,20.89-16.03,38.95c-0.42,15.56-22.33,23.28-37.81,24.94
	c-16.35,1.75-32.49-6.67-43.77-18.61c-11.28-11.94-18.47-27.1-25.04-42.16c-10.62-24.34-20.26-51.08-14.24-76.97
	c0.84-3.63,2.22-7.5,5.39-9.46S255.07,288.11,255.81,292.37z"/>
<path class="st1" d="M284.25,231.07c0.34-13.69,1.77-27.59,4.76-40.96c0.94-4.2,5.73-15.03,6.27-10.79
	c-0.72,11.48-2.95,20.07-2.95,30.06c0,4.01,0.43,4.08,2.74,4.31l3.01-1.41c5.16-3.42,8.89-5.09,12.18-6.33
	c0.89-0.34,1.74,0.59,1.31,1.44c-2.03,4.02-6.84,7.25-7.91,10.87c-0.06,0.2,0.03,0.42,0.21,0.51c1.73,0.89,3.6-1,5.31-1.17
	c0.82-0.08,1.44,0.73,1.15,1.5l-1.95,5.14c10.13-4.19,35.8-9.67,31.98-6.71C325.09,228.68,285.89,239.4,284.25,231.07z"/>
<path class="st1" d="M195.22,284.74c-17.85-4.35-56.5,5.02-51.72,7.48c3.59,3.69,8.98,5.56,14.09,4.88
	c4.58-0.61,16.65-4.89,13.58-2.17c-3.9,2.37-7.26,5.63-9.74,9.47c-2.01,2.54,8-2.38,11.86-4.16c6.12-2.82,13.6-1.41,18.17-4.69
	c2.75-1.08,1.34,14.81,2.16,21.91c0.3,2.56,1,5.56,3.4,6.52c2.68,1.34,6.5-20.98,4.52-31.64c-0.27-1.46-0.64-2.97-1.6-4.11
	C198.97,287.11,198.62,285.67,195.22,284.74z"/>
<path class="st1" d="M214.06,230.53c-11.61,1.58-23.88-4.88-29.15-15.34c-0.13-0.25-0.25-0.53-0.19-0.81
	c0.08-0.36,0.46-0.58,0.8-0.72c3.96-1.71,8.61-1,12.57,0.72s7.44,4.35,11.11,6.62c0.47,0.29,1.01,0.58,1.54,0.45
	c0.91-0.22,1.11-1.4,1.1-2.33c-0.07-6.4-1.4-13.12,1.16-18.98c0.49-1.13,1.48-2.37,2.68-2.1c0.6,0.13,1.04,0.62,1.43,1.09
	c3.22,3.9,5.19,8.83,5.55,13.88C223.1,219.14,221.72,229.49,214.06,230.53z"/>
<path id="_x3C_Path_x3E_" class="st1" d="M287.26,308.42c-3.56-7.93-6.32-16.22-8.24-24.7c-0.27-1.18-0.35-2.73,0.74-3.25
	c0.5-0.24,1.08-0.15,1.62-0.06c6.38,1.12,12.6,3.07,18.48,5.79c6.96,3.22,13.88,8.11,16.13,15.45c0.12,0.39,0.22,0.83,0.06,1.2
	c-0.24,0.58-0.97,0.76-1.6,0.81c-5.03,0.39-9.62-2.59-14.36-4.32c-1.36-0.5-3.19-0.76-4,0.45c-0.51,0.76-0.34,1.77-0.16,2.66
	c0.6,2.91,1.19,5.83,1.79,8.74c0.43,2.1,0.63,4.79-1.22,5.89c-1.85,1.11-4.17-0.38-5.6-2.01
	C288.81,312.69,287.84,309.71,287.26,308.42z"/>
</svg>
